<svg xmlns="http://www.w3.org/2000/svg" width="0.99in" height="0.48in" viewBox="0 0 71.17 34.51">
  <title>logo-dark</title>
  <g>
    <path d="M13.18,18.67v7.68a4.63,4.63,0,0,1-1.49,3.44,7.51,7.51,0,0,1-4.91,1.69C3.2,31.48.36,29.34.36,26.69s2.87-4.81,6.32-4.81a5.12,5.12,0,0,1,.73,0v3.6a1.84,1.84,0,0,0-.65-.1A1.59,1.59,0,0,0,5,26.77c0,.71.8,1.3,1.84,1.3s1.71-.62,1.71-1.85V18.67Z" transform="translate(-0.36 -1.05)" fill="#ffffff"/>
    <path d="M20.91,27.24V25.59h2.17a1.44,1.44,0,0,0-1.56-1,2,2,0,0,0,0,4A1.83,1.83,0,0,0,22.83,28l2.62,2.37a7.49,7.49,0,0,1-4.06,1.08c-3.68,0-6.47-2.08-6.47-4.81s2.85-4.81,6.5-4.81,6.3,2.07,6.3,4.7c0,.15,0,.38,0,.68Z" transform="translate(-0.36 -1.05)" fill="#ffffff"/>
    <path d="M37.24,25.84c-1.29,0-1.69.32-1.79,1.36a4.54,4.54,0,0,1-3.17,3.94,9.09,9.09,0,0,1-3.25.39H28.4V27.88h.2c1.48,0,2-.41,2.11-1.55A10.67,10.67,0,0,1,30.89,25c.38-1.7,2.27-2.75,5-2.75h1.39Z" transform="translate(-0.36 -1.05)" fill="#ffffff"/>
    <path d="M43.36,31.29H38.75V22.07h4.61Zm0-11.64c0,1-1,1.63-2.29,1.63s-2.29-.68-2.29-1.63,1-1.69,2.31-1.69S43.36,18.74,43.36,19.65Z" transform="translate(-0.36 -1.05)" fill="#ffffff"/>
    <path d="M52.13,30.8a6.83,6.83,0,0,1-1.31.13c-3.08,0-5.42-1.89-5.42-4.35,0-2.63,2.82-4.7,6.43-4.7a6.88,6.88,0,0,1,5.09,1.9,5.24,5.24,0,0,1,1,3.21v3a5,5,0,0,1-1.67,3.82,7.56,7.56,0,0,1-5,1.73,9.3,9.3,0,0,1-2.39-.34V32.08a4.81,4.81,0,0,0,1.84.38c1.66,0,2.57-.83,2.57-2.38V26.61a1.34,1.34,0,0,0-1.51-1.43c-.94,0-1.72.58-1.72,1.28s.73,1.19,1.64,1.19h.43Z" transform="translate(-0.36 -1.05)" fill="#ffffff"/>
    <path d="M66.92,31.29V26.08a.74.74,0,0,0-.83-.79.8.8,0,0,0-.89.79v5.21H60.59V26.14c0-2.38,2.42-4.26,5.47-4.26a6.2,6.2,0,0,1,4.48,1.69,4.21,4.21,0,0,1,1,2.85v4.87Z" transform="translate(-0.36 -1.05)" fill="#ffffff"/>
  </g>
  <g>
    <path d="M37.46,10.33V8.68h2.17a1.44,1.44,0,0,0-1.56-1,1.87,1.87,0,0,0-1.94,2,1.94,1.94,0,0,0,3.25,1.49L42,13.49a7.6,7.6,0,0,1-4.06,1.08c-3.68,0-6.47-2.09-6.47-4.81S34.31,5,38,5,44.26,7,44.26,9.64c0,.16,0,.38,0,.69Z" transform="translate(-0.36 -1.05)" fill="#ffffff"/>
    <path d="M15.82,14.38H11.21V5.16h4.61Zm0-11.64c0,.94-1,1.62-2.29,1.62s-2.29-.68-2.29-1.62,1-1.69,2.31-1.69S15.82,1.83,15.82,2.74Z" transform="translate(-0.36 -1.05)" fill="#ffffff"/>
    <path d="M24.84,14.38V9.17A.73.73,0,0,0,24,8.38a.79.79,0,0,0-.88.79v5.21H18.52V9.23C18.52,6.84,20.93,5,24,5a6.22,6.22,0,0,1,4.49,1.68,4.23,4.23,0,0,1,1,2.86v4.87Z" transform="translate(-0.36 -1.05)" fill="#ffffff"/>
    <path d="M9.11,11l-.23,0A1.63,1.63,0,0,1,7.11,9.12V1.57H2.5V9.25A5,5,0,0,0,3.66,12.4a7.32,7.32,0,0,0,5.24,2h.21Z" transform="translate(-0.36 -1.05)" fill="#ffffff"/>
  </g>
</svg>
