<?xml version="1.0" encoding="iso-8859-1"?>
<!-- Generator: Adobe Illustrator 19.0.0, SVG Export Plug-In . SVG Version: 6.00 Build 0)  -->
<svg version="1.1" id="Layer_1" xmlns="http://www.w3.org/2000/svg" xmlns:xlink="http://www.w3.org/1999/xlink" x="0px" y="0px"
	 viewBox="0 0 512 512" style="enable-background:new 0 0 512 512;" xml:space="preserve">
<g>
	<g>
		<path d="M117.026,182.492H77.023c-4.081,0-7.769,2.432-9.375,6.184L35.444,263.85c-1.35,3.151-1.026,6.769,0.861,9.631
			c1.888,2.862,5.086,4.583,8.514,4.583h72.206c5.633,0,10.199-4.567,10.199-10.199v-75.174
			C127.225,187.059,122.659,182.492,117.026,182.492z M60.283,257.667l23.465-54.776h23.077v54.776H60.283z"/>
	</g>
</g>
<g>
	<g>
		<path d="M509.677,222.819c2.253-2.737,2.922-6.448,1.768-9.8l-39.745-115.44c-1.155-3.352-3.967-5.864-7.427-6.635
			c-15.823-3.524-32.072-5.608-48.297-6.193c-66.109-2.4-130.393,19.742-181.015,62.323c-12.428,10.453-23.95,22.099-34.248,34.614
			c-2.252,2.737-2.922,6.448-1.768,9.8l39.746,115.439c1.154,3.351,3.965,5.864,7.426,6.635c1.703,0.379,3.413,0.734,5.125,1.08
			v20.178h-18.376l-44.83-135.442c-0.134-0.403-0.296-0.786-0.472-1.16v-39.157c0-5.632-4.566-10.199-10.199-10.199H53.721
			c-4.135,0-7.861,2.496-9.433,6.32L0.766,261.02C0.26,262.25,0,263.568,0,264.899v128.587c0,5.632,4.566,10.199,10.199,10.199
			h74.457c4.341,13.745,17.209,23.74,32.37,23.74s28.029-9.994,32.37-23.74h188.479c4.341,13.745,17.209,23.74,32.37,23.74
			c14.405,0,26.735-9.026,31.653-21.716c4.918,12.69,17.247,21.716,31.652,21.716c15.161,0,28.031-9.994,32.371-23.74h24.011
			c5.632,0,10.199-4.567,10.199-10.199v-48.468c0-5.632-4.567-10.199-10.199-10.199h-11.562v-79.919
			C489.674,245.106,500.2,234.337,509.677,222.819z M440.991,200.004l-96.122,96.123c-13.404,2.25-27.049,3.391-40.815,3.392
			l90.219-90.219c3.983-3.983,3.983-10.441,0-14.425c-3.984-3.982-10.44-3.982-14.425,0l-84.629,84.629l-8.952-26l128.8-128.799
			L440.991,200.004z M415.477,334.819H304.281v-14.89c55.252-0.037,108.808-17.183,153.69-49.014v21.41L415.477,334.819z
			 M457.971,321.174v13.646h-13.646L457.971,321.174z M383.471,286.374l64.909-64.91l8.527,24.765
			C434.699,263.866,409.858,277.368,383.471,286.374z M405.948,104.977L278.88,232.046l-8.571-24.895L369.76,107.7
			C381.674,105.913,393.766,104.995,405.948,104.977z M332.206,116.403l-69.288,69.288l-9.437-27.412
			C277.161,139.472,303.852,125.369,332.206,116.403z M220.114,190.316c5.284-6.127,10.889-12.009,16.764-17.6l43.261,125.65
			c-8.074-0.787-16.112-1.974-24.047-3.547L220.114,190.316z M283.883,319.153v15.668h-12.243v-16.882
			C275.711,318.438,279.794,318.841,283.883,319.153z M187.562,262.868l23.815,71.951h-23.815V262.868z M117.026,407.027
			c-7.466,0-13.539-6.075-13.539-13.54s6.075-13.539,13.539-13.539c7.466,0,13.54,6.074,13.54,13.539
			S124.492,407.027,117.026,407.027z M370.245,407.027c-7.466,0-13.539-6.075-13.539-13.54s6.074-13.539,13.539-13.539
			s13.54,6.074,13.54,13.539S377.711,407.027,370.245,407.027z M433.55,407.027c-7.466,0-13.539-6.075-13.539-13.54
			s6.074-13.539,13.539-13.539s13.54,6.074,13.54,13.539S441.016,407.027,433.55,407.027z M479.732,355.218v28.069H465.92
			c-4.341-13.745-17.209-23.739-32.371-23.739c-14.405,0-26.734,9.025-31.652,21.715c-4.918-12.69-17.247-21.715-31.653-21.715
			c-15.161,0-28.029,9.994-32.37,23.739H149.396c-4.341-13.745-17.209-23.739-32.37-23.739c-15.161,0-28.029,9.994-32.37,23.739
			H20.398V352.25h14.53c5.633,0,10.199-4.567,10.199-10.199c0-5.632-4.566-10.199-10.199-10.199h-14.53v-11.254h14.53
			c5.633,0,10.199-4.567,10.199-10.199c0-5.632-4.566-10.199-10.199-10.199h-14.53v-33.286l40.156-97.653h106.609v175.759
			c0,5.632,4.566,10.199,10.199,10.199H479.732z M473.509,231.791L430.248,106.14c8.071,0.787,16.11,1.974,24.047,3.548
			l35.98,104.503C484.989,220.318,479.385,226.199,473.509,231.791z"/>
	</g>
</g>
<g>
	<g>
		<path d="M418.012,171.136c-3.984-3.982-10.44-3.982-14.425,0l-0.989,0.989c-3.983,3.983-3.983,10.441,0,14.425
			c1.992,1.992,4.602,2.987,7.213,2.987c2.611,0,5.22-0.996,7.212-2.987l0.989-0.989
			C421.995,181.578,421.995,175.119,418.012,171.136z"/>
	</g>
</g>
<g>
</g>
<g>
</g>
<g>
</g>
<g>
</g>
<g>
</g>
<g>
</g>
<g>
</g>
<g>
</g>
<g>
</g>
<g>
</g>
<g>
</g>
<g>
</g>
<g>
</g>
<g>
</g>
<g>
</g>
</svg>
